<svg width="18" height="18" viewBox="0 0 18 18" fill="none" xmlns="http://www.w3.org/2000/svg">
<path d="M9.00008 17.3333C4.40008 17.3283 0.671748 13.6 0.666748 8.99996V8.83329C0.758415 4.25412 4.52925 0.606623 9.10842 0.666623C13.6892 0.72829 17.3617 4.47412 17.3317 9.05412C17.3018 13.635 13.5809 17.3333 9.00008 17.3333ZM9.00008 2.33329C7.68154 2.33329 6.39261 2.72428 5.29628 3.45683C4.19995 4.18937 3.34547 5.23056 2.84088 6.44873C2.3363 7.66691 2.20428 9.00735 2.46151 10.3006C2.71875 11.5938 3.35369 12.7817 4.28604 13.714C5.21839 14.6464 6.40627 15.2813 7.69948 15.5385C8.99269 15.7958 10.3331 15.6637 11.5513 15.1592C12.7695 14.6546 13.8107 13.8001 14.5432 12.7038C15.2758 11.6074 15.6667 10.3185 15.6667 8.99996C15.6648 7.23246 14.9617 5.53792 13.7119 4.2881C12.4621 3.03829 10.7676 2.33528 9.00008 2.33329ZM9.00008 13.1666L7.82508 11.9916L9.97508 9.83329H4.83342V8.16662H9.97508L7.82508 6.00829L9.00008 4.83329L13.1667 8.99996L9.00008 13.1666Z" fill="#FF9D80"/>
</svg>
